<?xml version="1.0" encoding="iso-8859-1"?>
<!-- Generator: Adobe Illustrator 19.0.0, SVG Export Plug-In . SVG Version: 6.00 Build 0)  -->
<svg version="1.1" id="Capa_1" xmlns="http://www.w3.org/2000/svg" xmlns:xlink="http://www.w3.org/1999/xlink" x="0px" y="0px"
	 viewBox="0 0 539.077 539.077" style="enable-background:new 0 0 539.077 539.077;" xml:space="preserve">
<g>
	<g>
		<path d="M348.154,539.077H78.615C35.272,539.077,0,503.805,0,460.462s35.272-78.615,78.615-78.615h33.692V78.615
			C112.308,35.272,147.579,0,190.923,0h269.538c1.119,0,2.215,0.165,3.224,0.472C466.318,0.165,468.994,0,471.692,0
			c39.681,0,67.385,32.332,67.385,78.615c0,6.208-5.023,11.231-11.231,11.231H426.769v370.615
			C426.769,503.805,391.498,539.077,348.154,539.077z M348.154,404.308c-30.972,0-56.154,25.182-56.154,56.154
			s25.181,56.154,56.154,56.154s56.154-25.181,56.154-56.154V67.385c0-17.241,6.515-32.99,17.197-44.923H190.923
			c-30.961,0-56.154,25.192-56.154,56.154v303.231h213.385c6.208,0,11.231,5.023,11.231,11.231
			C359.385,399.285,354.361,404.308,348.154,404.308z M78.615,404.308c-30.961,0-56.154,25.182-56.154,56.154
			s25.192,56.154,56.154,56.154h214.569c-14.587-14.28-23.646-34.175-23.646-56.154c0-21.979,9.059-41.874,23.646-56.154H78.615z
			 M426.769,67.385h89.122c-3.575-27.287-20.444-44.923-44.199-44.923C446.928,22.462,426.769,42.609,426.769,67.385z
			 M325.692,336.923H202.154c-6.208,0-11.231-5.023-11.231-11.231c0-6.208,5.023-11.231,11.231-11.231h123.538
			c6.208,0,11.231,5.023,11.231,11.231C336.923,331.9,331.9,336.923,325.692,336.923z M325.692,269.538H202.154
			c-6.208,0-11.231-5.023-11.231-11.231c0-6.208,5.023-11.231,11.231-11.231h123.538c6.208,0,11.231,5.023,11.231,11.231
			C336.923,264.515,331.9,269.538,325.692,269.538z M325.692,202.154H202.154c-6.208,0-11.231-5.023-11.231-11.231
			c0-6.208,5.023-11.231,11.231-11.231h123.538c6.208,0,11.231,5.023,11.231,11.231C336.923,197.131,331.9,202.154,325.692,202.154z
			 M325.692,134.769H202.154c-6.208,0-11.231-5.023-11.231-11.231s5.023-11.231,11.231-11.231h123.538
			c6.208,0,11.231,5.023,11.231,11.231S331.9,134.769,325.692,134.769z"/>
	</g>
</g>
<g>
</g>
<g>
</g>
<g>
</g>
<g>
</g>
<g>
</g>
<g>
</g>
<g>
</g>
<g>
</g>
<g>
</g>
<g>
</g>
<g>
</g>
<g>
</g>
<g>
</g>
<g>
</g>
<g>
</g>
</svg>
