<?xml version="1.0" encoding="UTF-8" standalone="no"?>
<!-- Generator: Adobe Illustrator 11.0, SVG Export Plug-In . SVG Version: 6.0.0 Build 78)  -->

<svg
   xmlns:i="http://ns.adobe.com/AdobeIllustrator/10.0/"
   xmlns:dc="http://purl.org/dc/elements/1.1/"
   xmlns:cc="http://creativecommons.org/ns#"
   xmlns:rdf="http://www.w3.org/1999/02/22-rdf-syntax-ns#"
   xmlns:svg="http://www.w3.org/2000/svg"
   xmlns="http://www.w3.org/2000/svg"
   xmlns:xlink="http://www.w3.org/1999/xlink"
   xmlns:sodipodi="http://sodipodi.sourceforge.net/DTD/sodipodi-0.dtd"
   xmlns:inkscape="http://www.inkscape.org/namespaces/inkscape"
   i:viewOrigin="1.9395 45.4727"
   i:rulerOrigin="0 0"
   i:pageBounds="0 48 48 0"
   width="48"
   height="48"
   viewBox="0 0 45.238 43.682"
   overflow="visible"
   enable-background="new 0 0 45.238 43.682"
   xml:space="preserve"
   id="svg3990"
   sodipodi:version="0.32"
   inkscape:version="0.48.0 r9654"
   sodipodi:docname="SOP_varmap.svg"
   version="1.0"><metadata
   id="metadata37"><rdf:RDF><cc:Work
       rdf:about=""><dc:format>image/svg+xml</dc:format><dc:type
         rdf:resource="http://purl.org/dc/dcmitype/StillImage" /><dc:title /></cc:Work></rdf:RDF></metadata><defs
   id="defs4045"><linearGradient
   id="linearGradient7804"><stop
     style="stop-color:#dfeaa1;stop-opacity:1;"
     offset="0"
     id="stop7806" /><stop
     style="stop-color:#9db029;stop-opacity:1;"
     offset="1"
     id="stop7808" /></linearGradient>
		<linearGradient
   inkscape:collect="always"
   xlink:href="#linearGradient7804"
   id="linearGradient7810"
   x1="13.697268"
   y1="6.8871083"
   x2="13.697268"
   y2="1.7436063"
   gradientUnits="userSpaceOnUse"
   gradientTransform="matrix(1.022192,0,0,1.195244,-0.53073,-0.561955)" /></defs><sodipodi:namedview
   inkscape:window-height="965"
   inkscape:window-width="1548"
   inkscape:pageshadow="2"
   inkscape:pageopacity="0.0"
   borderopacity="1.0"
   bordercolor="#666666"
   pagecolor="#ffffff"
   id="base"
   inkscape:zoom="10.814997"
   inkscape:cx="27.718248"
   inkscape:cy="27.577642"
   inkscape:window-x="296"
   inkscape:window-y="106"
   inkscape:current-layer="svg3990"
   showgrid="false"
   stroke="#2e3436"
   fill="#2e3436"
   inkscape:window-maximized="0"><inkscape:grid
     id="GridFromPre046Settings"
     type="xygrid"
     originx="0px"
     originy="0px"
     spacingx="1px"
     spacingy="1px"
     color="#0000ff"
     empcolor="#0000ff"
     opacity="0.2"
     empopacity="0.4"
     empspacing="8" /></sodipodi:namedview>
		<path
   style="fill:none;stroke:#2d3335;stroke-width:0.80000001;opacity:1"
   id="path3995"
   i:knockout="Off"
   d="" />
	<rect
   style="opacity:1;color:#000000;fill:#eeeeec;fill-opacity:1;fill-rule:evenodd;stroke:#2e3436;stroke-width:1.00000072;stroke-linecap:round;stroke-linejoin:round;marker:none;marker-start:none;marker-mid:none;marker-end:none;stroke-miterlimit:4;stroke-dasharray:none;stroke-dashoffset:0;stroke-opacity:1;visibility:visible;display:inline;overflow:visible"
   id="rect7790"
   width="42.337452"
   height="42.337452"
   x="1.4528863"
   y="0.67488515" /><rect
   style="color:#000000;fill:#d3d7cf;fill-opacity:1;fill-rule:evenodd;stroke:none;stroke-width:1;marker:none;visibility:visible;display:inline;overflow:visible"
   id="rect7812-8"
   width="41.37392"
   height="9.2965508"
   x="1.9471189"
   y="27.291357" /><rect
   style="opacity:1;color:#000000;fill:url(#linearGradient7810);fill-opacity:1;fill-rule:evenodd;stroke:#2e3436;stroke-width:1.00000012;stroke-linecap:round;stroke-linejoin:round;marker:none;marker-start:none;marker-mid:none;marker-end:none;stroke-miterlimit:4;stroke-dasharray:none;stroke-dashoffset:0;stroke-opacity:1;visibility:visible;display:inline;overflow:visible"
   id="rect7792"
   width="42.388428"
   height="7.3800159"
   x="1.3960129"
   y="0.76107991" /><rect
   style="color:#000000;fill:#d3d7cf;fill-opacity:1;fill-rule:evenodd;stroke:none;stroke-width:1;marker:none;visibility:visible;display:inline;overflow:visible"
   id="rect7812"
   width="41.37392"
   height="9.2965498"
   x="1.8849167"
   y="8.6465836" /><path
   style="fill:none;fill-opacity:0.75;fill-rule:evenodd;stroke:#2e3436;stroke-width:0.99999994px;stroke-linecap:butt;stroke-linejoin:miter;stroke-opacity:1;opacity:1"
   d="M 22.619,1.0732461 L 22.619,42.591271"
   id="path7794"
   sodipodi:nodetypes="cc" /><g
   transform="matrix(0.94245833,0,0,0.94245833,3.3333333e-8,-0.778)"
   style="font-size:5px;font-style:normal;font-variant:normal;font-weight:bold;font-stretch:normal;line-height:125%;letter-spacing:0px;word-spacing:0px;fill:#2e3436;fill-opacity:1;stroke:none;font-family:FreeSans;-inkscape-font-specification:FreeSans Bold"
   id="flowRoot3033"><path
     d="m 5.28525,13.493495 0,0.744 -0.664,0 0,3.488 -1.12,0 0,-3.488 -0.608,0 0,-0.744 0.608,0 0,-0.52 c -7e-7,-0.719995 0.3679989,-1.079995 1.104,-1.08 0.2186646,5e-6 0.4319977,0.008 0.64,0.024 l 0,0.84 c -0.096002,-0.016 -0.2026689,-0.024 -0.32,-0.024 -0.2026686,5e-6 -0.3040018,0.112004 -0.304,0.336 l 0,0.424 0.664,0"
     style="font-size:8px;fill:#2e3436;font-family:FreeSans;-inkscape-font-specification:FreeSans Bold"
     id="path3959" /><path
     d="m 7.704875,13.333495 c 0.6773302,4e-6 1.2026631,0.205337 1.576,0.616 0.3786623,0.405336 0.5679954,0.973336 0.568,1.704 -4.6e-6,0.693334 -0.1920044,1.242667 -0.576,1.648 -0.3840036,0.405333 -0.9040031,0.607999 -1.56,0.608 -0.6666684,-1e-6 -1.1893346,-0.202667 -1.568,-0.608 -0.3786671,-0.410666 -0.5680003,-0.970666 -0.568,-1.68 -3e-7,-0.709331 0.1893329,-1.266664 0.568,-1.672 0.3786654,-0.410663 0.8986649,-0.615996 1.56,-0.616 m 0.008,0.904 c -0.3040021,3e-6 -0.5493352,0.128003 -0.736,0.384 -0.1866682,0.256002 -0.2800014,0.589335 -0.28,1 -1.4e-6,0.410668 0.093332,0.744001 0.28,1 0.1866648,0.256 0.4319979,0.384 0.736,0.384 0.298664,0 0.5413304,-0.125333 0.728,-0.376 0.1919967,-0.255999 0.2879966,-0.586665 0.288,-0.992 -3.4e-6,-0.426665 -0.093337,-0.765331 -0.28,-1.016 -0.1813363,-0.255997 -0.4266694,-0.383997 -0.736,-0.384"
     style="font-size:8px;fill:#2e3436;font-family:FreeSans;-inkscape-font-specification:FreeSans Bold"
     id="path3961" /><path
     d="m 12.5955,13.333495 c 0.67733,4e-6 1.202663,0.205337 1.576,0.616 0.378662,0.405336 0.567995,0.973336 0.568,1.704 -5e-6,0.693334 -0.192004,1.242667 -0.576,1.648 -0.384004,0.405333 -0.904003,0.607999 -1.56,0.608 -0.666668,-1e-6 -1.189335,-0.202667 -1.568,-0.608 -0.378667,-0.410666 -0.568,-0.970666 -0.568,-1.68 0,-0.709331 0.189333,-1.266664 0.568,-1.672 0.378665,-0.410663 0.898665,-0.615996 1.56,-0.616 m 0.008,0.904 c -0.304002,3e-6 -0.549335,0.128003 -0.736,0.384 -0.186668,0.256002 -0.280001,0.589335 -0.28,1 -1e-6,0.410668 0.09333,0.744001 0.28,1 0.186665,0.256 0.431998,0.384 0.736,0.384 0.298664,0 0.54133,-0.125333 0.728,-0.376 0.191997,-0.255999 0.287997,-0.586665 0.288,-0.992 -3e-6,-0.426665 -0.09334,-0.765331 -0.28,-1.016 -0.181336,-0.255997 -0.426669,-0.383997 -0.736,-0.384"
     style="font-size:8px;fill:#2e3436;font-family:FreeSans;-inkscape-font-specification:FreeSans Bold"
     id="path3963" /></g><g
   transform="matrix(0.94245833,0,0,0.94245833,21.295423,-0.778)"
   style="font-size:8px;font-style:normal;font-variant:normal;font-weight:bold;font-stretch:normal;line-height:125%;letter-spacing:0px;word-spacing:0px;fill:#2e3436;fill-opacity:1;stroke:none;font-family:FreeSans;-inkscape-font-specification:FreeSans Bold"
   id="flowRoot3033-8"><path
     d="m 4.57325,15.213495 0,2.512 -1.2,0 0,-5.832 4.096,0 0,1 -2.896,0 0,1.32 2.552,0 0,1 -2.552,0"
     style="fill:#2e3436;font-family:FreeSans;-inkscape-font-specification:FreeSans Bold"
     id="path3966" /><path
     d="m 8.5255,17.053495 c -0.5120006,-0.570666 -0.7680003,-1.303998 -0.768,-2.2 -3e-7,-0.895997 0.2559994,-1.629329 0.768,-2.2 0.5173317,-0.570661 1.1946644,-0.855994 2.032,-0.856 0.842663,6e-6 1.522662,0.285339 2.04,0.856 0.517328,0.565337 0.775994,1.312003 0.776,2.24 -6e-6,0.864002 -0.256006,1.584001 -0.768,2.16 -0.506671,0.570666 -1.186671,0.855999 -2.04,0.856 -0.8480023,-1e-6 -1.5280016,-0.285334 -2.04,-0.856 m 2.04,-4.232 c -0.485336,5e-6 -0.8746689,0.186671 -1.168,0.56 -0.293335,0.368004 -0.4400015,0.85867 -0.44,1.472 -1.5e-6,0.613335 0.146665,1.106668 0.44,1.48 0.2933311,0.368001 0.682664,0.552 1.168,0.552 0.479996,0 0.866663,-0.183999 1.16,-0.552 0.298662,-0.367999 0.447995,-0.850665 0.448,-1.448 -5e-6,-0.62933 -0.146671,-1.130663 -0.44,-1.504 -0.288004,-0.373329 -0.677337,-0.559995 -1.168,-0.56"
     style="fill:#2e3436;font-family:FreeSans;-inkscape-font-specification:FreeSans Bold"
     id="path3968" /><path
     d="m 14.74425,17.053495 c -0.512001,-0.570666 -0.768,-1.303998 -0.768,-2.2 0,-0.895997 0.255999,-1.629329 0.768,-2.2 0.517332,-0.570661 1.194664,-0.855994 2.032,-0.856 0.842663,6e-6 1.522662,0.285339 2.04,0.856 0.517328,0.565337 0.775994,1.312003 0.776,2.24 -6e-6,0.864002 -0.256006,1.584001 -0.768,2.16 -0.506671,0.570666 -1.186671,0.855999 -2.04,0.856 -0.848002,-1e-6 -1.528002,-0.285334 -2.04,-0.856 m 2.04,-4.232 c -0.485336,5e-6 -0.874669,0.186671 -1.168,0.56 -0.293335,0.368004 -0.440002,0.85867 -0.44,1.472 -2e-6,0.613335 0.146665,1.106668 0.44,1.48 0.293331,0.368001 0.682664,0.552 1.168,0.552 0.479996,0 0.866663,-0.183999 1.16,-0.552 0.298662,-0.367999 0.447995,-0.850665 0.448,-1.448 -5e-6,-0.62933 -0.146671,-1.130663 -0.44,-1.504 -0.288004,-0.373329 -0.677337,-0.559995 -1.168,-0.56"
     style="fill:#2e3436;font-family:FreeSans;-inkscape-font-specification:FreeSans Bold"
     id="path3970" /></g><g
   transform="matrix(0.94245833,0,0,0.94245833,-0.33928497,8.4881773)"
   style="font-size:5px;font-style:normal;font-variant:normal;font-weight:bold;font-stretch:normal;line-height:125%;letter-spacing:0px;word-spacing:0px;fill:#2e3436;fill-opacity:1;stroke:none;font-family:FreeSans;-inkscape-font-specification:FreeSans Bold"
   id="flowRoot3033-2"><path
     d="m 5.56525,13.333495 c 0.51733,4e-6 0.9493296,0.216004 1.296,0.648 0.3466622,0.42667 0.5199954,0.973336 0.52,1.64 -4.6e-6,0.650668 -0.1733378,1.194667 -0.52,1.632 -0.3466704,0.437333 -0.77867,0.655999 -1.296,0.656 -0.5280023,-1e-6 -0.9253352,-0.208 -1.192,-0.624 l 0,0.44 -1.12,0 0,-5.832 1.12,0 0,2.072 c 0.2666648,-0.42133 0.6639977,-0.631996 1.192,-0.632 m 0.432,1.32 c -0.176003,-0.255997 -0.4026695,-0.383997 -0.68,-0.384 -0.2773356,3e-6 -0.504002,0.125336 -0.68,0.376 -0.1760017,0.245336 -0.2640016,0.565335 -0.264,0.96 -1.6e-6,0.410668 0.085332,0.741334 0.256,0.992 0.175998,0.250667 0.4053311,0.376 0.688,0.376 0.2773305,0 0.503997,-0.125333 0.68,-0.376 0.1759966,-0.250666 0.2639965,-0.573332 0.264,-0.968 -3.5e-6,-0.399998 -0.088003,-0.725331 -0.264,-0.976"
     style="font-size:8px;fill:#2e3436;font-family:FreeSans;-inkscape-font-specification:FreeSans Bold"
     id="path3952" /><path
     d="m 9.207875,17.909495 c -0.3946678,-1e-6 -0.7120008,-0.117334 -0.952,-0.352 -0.2400003,-0.24 -0.3600002,-0.554666 -0.36,-0.944 -2e-7,-0.762665 0.4239994,-1.215998 1.272,-1.36 l 0.448,-0.08 c 0.010665,2e-6 0.063998,-0.0053 0.16,-0.016 0.095998,-0.016 0.1573311,-0.02666 0.184,-0.032 0.026664,-0.01066 0.077331,-0.024 0.152,-0.04 0.08,-0.016 0.135997,-0.03466 0.168,-0.056 0.032,-0.02133 0.06933,-0.048 0.112,-0.08 0.048,-0.03733 0.08,-0.07733 0.096,-0.12 0.016,-0.048 0.024,-0.101331 0.024,-0.16 -3e-6,-0.287997 -0.216003,-0.431997 -0.648,-0.432 -0.2773352,3e-6 -0.4720017,0.04267 -0.584,0.128 -0.1120015,0.08534 -0.1813348,0.240003 -0.208,0.464 l -1.08,0 c 0.069333,-0.99733 0.6853323,-1.495996 1.848,-1.496 1.178663,4e-6 1.767996,0.44267 1.768,1.328 l 0,2.4 c -4e-6,0.197333 0.08533,0.373333 0.256,0.528 l 0,0.136 -1.216,0 c -0.08534,-0.106667 -0.128003,-0.250667 -0.128,-0.432 -0.394669,0.410666 -0.832002,0.615999 -1.312,0.616 m 1.304,-1.92 0,-0.304 c -0.101336,0.048 -0.258669,0.09333 -0.472,0.136 l -0.384,0.072 c -0.2346684,0.048 -0.4000016,0.117335 -0.496,0.208 -0.096001,0.09067 -0.1440013,0.218668 -0.144,0.384 -1.3e-6,0.160001 0.053332,0.288001 0.16,0.384 0.1119984,0.09067 0.2613316,0.136 0.448,0.136 0.2826644,0 0.501331,-0.088 0.656,-0.264 0.154664,-0.175999 0.231997,-0.426666 0.232,-0.752"
     style="font-size:8px;fill:#2e3436;font-family:FreeSans;-inkscape-font-specification:FreeSans Bold"
     id="path3954" /><path
     d="m 12.550875,13.405495 1.12,0 0,0.848 c 0.117332,-0.29333 0.282665,-0.519996 0.496,-0.68 0.213331,-0.159996 0.447997,-0.239996 0.704,-0.24 0.048,4e-6 0.09333,0.0027 0.136,0.008 l 0,1.136 c -0.133336,-0.02133 -0.250669,-0.032 -0.352,-0.032 -0.656002,3e-6 -0.984002,0.328003 -0.984,0.984 l 0,2.296 -1.12,0 0,-4.32"
     style="font-size:8px;fill:#2e3436;font-family:FreeSans;-inkscape-font-specification:FreeSans Bold"
     id="path3956" /></g><g
   transform="matrix(0.94245833,0,0,0.94245833,21.235106,8.4881773)"
   style="font-size:8px;font-style:normal;font-variant:normal;font-weight:bold;font-stretch:normal;line-height:125%;letter-spacing:0px;word-spacing:0px;fill:#2e3436;fill-opacity:1;stroke:none;font-family:FreeSans;-inkscape-font-specification:FreeSans Bold"
   id="flowRoot3033-8-3"><path
     d="m 8.10925,16.045495 c -5.3e-6,0.192001 -0.032005,0.378668 -0.096,0.56 -0.064005,0.181334 -0.1680051,0.36 -0.312,0.536 -0.1386714,0.176 -0.3493379,0.317333 -0.632,0.424 -0.2826707,0.106666 -0.6186703,0.16 -1.008,0.16 l -2.624,0 0,-5.832 2.6,0 c 0.362663,5e-6 0.6746627,0.05334 0.936,0.16 0.2666622,0.106672 0.4639953,0.245338 0.592,0.416 0.1333284,0.165338 0.2293283,0.328005 0.288,0.488 0.058662,0.160004 0.087995,0.317337 0.088,0.472 -5.2e-6,0.25067 -0.061338,0.46667 -0.184,0.648 -0.1226715,0.181336 -0.3280046,0.365336 -0.616,0.552 0.6453283,0.378669 0.9679947,0.850669 0.968,1.416 m -3.472,-3.152 0,1.32 1.304,0 c 0.5653296,3e-6 0.847996,-0.218663 0.848,-0.656 -4e-6,-0.442662 -0.2826704,-0.663996 -0.848,-0.664 l -1.304,0 m 0,2.32 0,1.512 1.432,0 c 0.5919961,1e-6 0.8879958,-0.250666 0.888,-0.752 -4.2e-6,-0.506665 -0.2960039,-0.759998 -0.888,-0.76 l -1.432,0"
     style="fill:#2e3436;font-family:FreeSans;-inkscape-font-specification:FreeSans Bold"
     id="path3973" /><path
     d="m 12.336125,16.549495 -2.184,0 -0.392,1.176 -1.224,0 2.072,-5.832 1.328,0 2.016,5.832 -1.232,0 -0.384,-1.176 m -0.328,-1 -0.76,-2.28 -0.76,2.28 1.52,0"
     style="fill:#2e3436;font-family:FreeSans;-inkscape-font-specification:FreeSans Bold"
     id="path3975" /><path
     d="m 18.053375,16.725495 c -4e-6,-0.159999 0.0027,-0.285332 0.008,-0.376 0.0053,-0.09067 0.008,-0.170666 0.008,-0.24 -4e-6,-0.245332 -0.05867,-0.421332 -0.176,-0.528 -0.117337,-0.111998 -0.30667,-0.167998 -0.568,-0.168 l -1.376,0 0,2.312 -1.2,0 0,-5.832 3.128,0 c 0.298663,5e-6 0.554662,0.05067 0.768,0.152 0.218662,0.101339 0.381328,0.234672 0.488,0.4 0.111995,0.165338 0.191995,0.333338 0.24,0.504 0.048,0.165338 0.072,0.338671 0.072,0.52 -5e-6,0.704003 -0.328005,1.184003 -0.984,1.44 0.143996,0.05867 0.250662,0.106669 0.32,0.144 0.06933,0.032 0.138662,0.088 0.208,0.168 0.07466,0.08 0.122662,0.152002 0.144,0.216 0.02666,0.064 0.05066,0.181335 0.072,0.352 0.02666,0.170668 0.04266,0.338668 0.048,0.504 0.0053,0.165334 0.01066,0.410667 0.016,0.736 -5e-6,0.224 0.08533,0.384 0.256,0.48 l 0,0.216 -1.288,0 c -0.07467,-0.138667 -0.125337,-0.272 -0.152,-0.4 -0.02134,-0.128 -0.032,-0.328 -0.032,-0.6 m 0.192,-3.088 c -4e-6,-0.298663 -0.06934,-0.495996 -0.208,-0.592 -0.13867,-0.101329 -0.352004,-0.151996 -0.64,-0.152 l -1.448,0 0,1.52 1.448,0 c 0.282663,3e-6 0.49333,-0.05066 0.632,-0.152 0.143996,-0.10133 0.215996,-0.30933 0.216,-0.624"
     style="fill:#2e3436;font-family:FreeSans;-inkscape-font-specification:FreeSans Bold"
     id="path3977" /></g><g
   transform="matrix(0.94245833,0,0,0.94245833,-0.22618997,17.674845)"
   style="font-size:5px;font-style:normal;font-variant:normal;font-weight:bold;font-stretch:normal;line-height:125%;letter-spacing:0px;word-spacing:0px;fill:#2e3436;fill-opacity:1;stroke:none;font-family:FreeSans;-inkscape-font-specification:FreeSans Bold"
   id="flowRoot3033-4"><path
     d="m 7.09325,13.869495 c -0.1493375,-0.698663 -0.5653371,-1.047995 -1.248,-1.048 -0.4746693,5e-6 -0.8453356,0.181338 -1.112,0.544 -0.2666684,0.36267 -0.4000016,0.86667 -0.4,1.512 -1.6e-6,0.634668 0.1279983,1.130668 0.384,1.488 0.2613311,0.357334 0.6239974,0.536 1.088,0.536 0.3733299,0 0.6719963,-0.101333 0.896,-0.304 0.2239959,-0.202666 0.3546624,-0.490665 0.392,-0.864 l 1.168,0 c -0.037339,0.666668 -0.2800052,1.197334 -0.728,1.592 -0.4480043,0.389333 -1.0346704,0.583999 -1.76,0.584 -0.8106688,-1e-6 -1.4533349,-0.272 -1.928,-0.816 -0.4746673,-0.549333 -0.7120004,-1.293332 -0.712,-2.232 -4e-7,-0.943997 0.2399994,-1.690663 0.72,-2.24 0.4799984,-0.549328 1.1306645,-0.823994 1.952,-0.824 0.6879963,6e-6 1.2506624,0.184005 1.688,0.552 0.4426615,0.368005 0.6906613,0.874671 0.744,1.52 l -1.144,0"
     style="font-size:8px;fill:#2e3436;font-family:FreeSans;-inkscape-font-specification:FreeSans Bold"
     id="path3947" /><path
     d="m 10.6105,17.909495 c -0.533335,-1e-6 -0.9706677,-0.218667 -1.312,-0.656 -0.3360004,-0.437333 -0.5040002,-0.978666 -0.504,-1.624 -2e-7,-0.650664 0.1733329,-1.194664 0.52,-1.632 0.3466656,-0.442663 0.778665,-0.663996 1.296,-0.664 0.522664,4e-6 0.919997,0.21067 1.192,0.632 l 0,-2.072 1.12,0 0,5.832 -1.12,0 0,-0.44 c -0.277336,0.416 -0.674669,0.623999 -1.192,0.624 m 0.248,-3.64 c -0.277335,3e-6 -0.504002,0.128003 -0.68,0.384 -0.176001,0.250669 -0.2640014,0.576002 -0.264,0.976 -1.4e-6,0.394668 0.087999,0.717334 0.264,0.968 0.175998,0.250667 0.402665,0.376 0.68,0.376 0.277331,0 0.503997,-0.122666 0.68,-0.368 0.175997,-0.245332 0.263997,-0.565332 0.264,-0.96 -3e-6,-0.410665 -0.088,-0.741331 -0.264,-0.992 -0.170669,-0.255997 -0.397336,-0.383997 -0.68,-0.384"
     style="font-size:8px;fill:#2e3436;font-family:FreeSans;-inkscape-font-specification:FreeSans Bold"
     id="path3949" /></g><g
   transform="matrix(0.94245833,0,0,0.94245833,21.521613,17.674845)"
   style="font-size:8px;font-style:normal;font-variant:normal;font-weight:bold;font-stretch:normal;line-height:125%;letter-spacing:0px;word-spacing:0px;fill:#2e3436;fill-opacity:1;stroke:none;font-family:FreeSans;-inkscape-font-specification:FreeSans Bold"
   id="flowRoot3033-8-7"><path
     d="m 7.09325,13.869495 c -0.1493375,-0.698663 -0.5653371,-1.047995 -1.248,-1.048 -0.4746693,5e-6 -0.8453356,0.181338 -1.112,0.544 -0.2666684,0.36267 -0.4000016,0.86667 -0.4,1.512 -1.6e-6,0.634668 0.1279983,1.130668 0.384,1.488 0.2613311,0.357334 0.6239974,0.536 1.088,0.536 0.3733299,0 0.6719963,-0.101333 0.896,-0.304 0.2239959,-0.202666 0.3546624,-0.490665 0.392,-0.864 l 1.168,0 c -0.037339,0.666668 -0.2800052,1.197334 -0.728,1.592 -0.4480043,0.389333 -1.0346704,0.583999 -1.76,0.584 -0.8106688,-1e-6 -1.4533349,-0.272 -1.928,-0.816 -0.4746673,-0.549333 -0.7120004,-1.293332 -0.712,-2.232 -4e-7,-0.943997 0.2399994,-1.690663 0.72,-2.24 0.4799984,-0.549328 1.1306645,-0.823994 1.952,-0.824 0.6879963,6e-6 1.2506624,0.184005 1.688,0.552 0.4426615,0.368005 0.6906613,0.874671 0.744,1.52 l -1.144,0"
     style="fill:#2e3436;font-family:FreeSans;-inkscape-font-specification:FreeSans Bold"
     id="path3980" /><path
     d="m 9.1785,17.725495 0,-5.832 2.28,0 c 0.447997,5e-6 0.815996,0.05334 1.104,0.16 0.293329,0.106672 0.538662,0.277338 0.736,0.512 0.474661,0.565338 0.711995,1.312003 0.712,2.24 -5e-6,0.938668 -0.237339,1.685334 -0.712,2.24 -0.378671,0.453333 -0.992004,0.68 -1.84,0.68 l -2.28,0 m 1.2,-1 1.08,0 c 0.90133,1e-6 1.351996,-0.637332 1.352,-1.912 -4e-6,-1.279996 -0.45067,-1.919996 -1.352,-1.92 l -1.08,0 0,3.832"
     style="fill:#2e3436;font-family:FreeSans;-inkscape-font-specification:FreeSans Bold"
     id="path3982" /></g><g
   transform="matrix(0.94245833,0,0,0.94245833,-0.11474427,-0.778)"
   style="font-size:4px;font-style:normal;font-variant:normal;font-weight:normal;font-stretch:normal;line-height:125%;letter-spacing:0px;word-spacing:0px;fill:#2e3436;fill-opacity:1;stroke:none;font-family:FreeSerif;-inkscape-font-specification:FreeSerif"
   id="flowRoot3014"><path
     d="m 3.835,7.1114029 c -0.2466674,-1e-7 -0.4450005,-0.073333 -0.595,-0.22 -0.1500002,-0.1499998 -0.2250001,-0.3466662 -0.225,-0.59 -1e-7,-0.4766655 0.2649996,-0.7599986 0.795,-0.85 l 0.28,-0.05 c 0.00667,1.6e-6 0.039999,-0.00333 0.1,-0.01 0.059999,-0.01 0.098332,-0.016665 0.115,-0.02 0.016665,-0.00667 0.048332,-0.014998 0.095,-0.025 0.049998,-0.01 0.084998,-0.021665 0.105,-0.035 0.019998,-0.013332 0.043332,-0.029998 0.07,-0.05 0.029998,-0.023332 0.049998,-0.048332 0.06,-0.075 0.01,-0.029998 0.014998,-0.063332 0.015,-0.1 -1.8e-6,-0.1799979 -0.1350016,-0.2699978 -0.405,-0.27 -0.1733345,2.2e-6 -0.2950011,0.026669 -0.365,0.08 -0.070001,0.053335 -0.1133342,0.1500019 -0.13,0.29 l -0.675,0 c 0.043333,-0.6233309 0.4283327,-0.9349973 1.155,-0.935 0.7366646,2.7e-6 1.1049975,0.2766691 1.105,0.83 l 0,1.5 c -2.5e-6,0.1233336 0.053331,0.2333335 0.16,0.33 l 0,0.085 -0.76,0 c -0.053335,-0.066667 -0.080002,-0.1566665 -0.08,-0.27 -0.2466682,0.2566667 -0.5200013,0.3849999 -0.82,0.385 m 0.815,-1.2 0,-0.19 c -0.063335,0.030001 -0.1616683,0.058334 -0.295,0.085 l -0.24,0.045 c -0.1466678,0.030001 -0.250001,0.073334 -0.31,0.13 -0.060001,0.056668 -0.090001,0.1366675 -0.09,0.24 -8e-7,0.1000007 0.033333,0.1800006 0.1,0.24 0.069999,0.056667 0.1633322,0.085 0.28,0.085 0.1766653,4e-7 0.3133318,-0.055 0.41,-0.165 0.096665,-0.1099993 0.1449982,-0.2666658 0.145,-0.47"
     style="font-size:5px;font-weight:bold;fill:#2e3436;font-family:FreeSans;-inkscape-font-specification:FreeSans Bold"
     id="path3865" /><path
     d="m 7.114375,4.3514029 0,0.465 -0.39,0 0,1.47 c -1.1e-6,0.1200006 0.014999,0.2000005 0.045,0.24 0.029999,0.036667 0.091665,0.055 0.185,0.055 0.036665,4e-7 0.089999,-0.005 0.16,-0.015 l 0,0.49 c -0.1133347,0.036666 -0.2483346,0.055 -0.405,0.055 -0.4566673,-1e-7 -0.6850004,-0.2116666 -0.685,-0.635 l 0,-1.66 -0.345,0 0,-0.465 0.345,0 0,-0.725 0.7,0 0,0.725 0.39,0"
     style="font-size:5px;font-weight:bold;fill:#2e3436;font-family:FreeSans;-inkscape-font-specification:FreeSans Bold"
     id="path3867" /><path
     d="m 8.7061719,4.3514029 0,0.465 -0.39,0 0,1.47 c -1.1e-6,0.1200006 0.014999,0.2000005 0.045,0.24 0.029999,0.036667 0.091665,0.055 0.185,0.055 0.036665,4e-7 0.089999,-0.005 0.16,-0.015 l 0,0.49 c -0.1133348,0.036666 -0.2483346,0.055 -0.405,0.055 -0.4566673,-1e-7 -0.6850004,-0.2116666 -0.685,-0.635 l 0,-1.66 -0.345,0 0,-0.465 0.345,0 0,-0.725 0.7,0 0,0.725 0.39,0"
     style="font-size:5px;font-weight:bold;fill:#2e3436;font-family:FreeSans;-inkscape-font-specification:FreeSans Bold"
     id="path3869" /><path
     d="m 9.1372656,4.2964029 0.7,0 0,0.53 c 0.073332,-0.183331 0.1766654,-0.3249975 0.3100004,-0.425 0.133331,-0.099997 0.279998,-0.1499973 0.44,-0.15 0.03,2.7e-6 0.05833,0.00167 0.085,0.005 l 0,0.71 c -0.08333,-0.013331 -0.156669,-0.019998 -0.22,-0.02 -0.410002,2e-6 -0.6150014,0.2050018 -0.6150004,0.615 l 0,1.435 -0.7,0 0,-2.7"
     style="font-size:5px;font-weight:bold;fill:#2e3436;font-family:FreeSans;-inkscape-font-specification:FreeSans Bold"
     id="path3871" /><path
     d="m 11.800625,4.2964029 0,2.7 -0.7,0 0,-2.7 0.7,0 m 0,-0.945 0,0.625 -0.7,0 0,-0.625 0.7,0"
     style="font-size:5px;font-weight:bold;fill:#2e3436;font-family:FreeSans;-inkscape-font-specification:FreeSans Bold"
     id="path3873" /><path
     d="m 13.892344,4.2514029 c 0.323331,2.7e-6 0.593331,0.1350026 0.81,0.405 0.216664,0.2666687 0.324997,0.608335 0.325,1.025 -3e-6,0.4066676 -0.108336,0.7466672 -0.325,1.02 -0.216669,0.2733333 -0.486669,0.4099999 -0.81,0.41 -0.330002,-1e-7 -0.578335,-0.13 -0.745,-0.39 l 0,0.275 -0.7,0 0,-3.645 0.7,0 0,1.295 c 0.166665,-0.2633307 0.414998,-0.3949973 0.745,-0.395 m 0.27,0.825 c -0.110002,-0.1599979 -0.251669,-0.2399979 -0.425,-0.24 -0.173335,2.1e-6 -0.315002,0.078335 -0.425,0.235 -0.110001,0.1533351 -0.165001,0.3533349 -0.165,0.6 -1e-6,0.2566677 0.05333,0.4633342 0.16,0.62 0.109998,0.1566672 0.253332,0.2350004 0.43,0.235 0.173331,4e-7 0.314998,-0.078333 0.425,-0.235 0.109998,-0.1566658 0.164998,-0.3583323 0.165,-0.605 -2e-6,-0.2499985 -0.055,-0.4533316 -0.165,-0.61"
     style="font-size:5px;font-weight:bold;fill:#2e3436;font-family:FreeSans;-inkscape-font-specification:FreeSans Bold"
     id="path3875" /><path
     d="m 17.884687,6.9964029 -0.7,0 0,-0.32 c -0.193335,0.29 -0.463334,0.4349999 -0.81,0.435 -0.286667,-1e-7 -0.51,-0.081667 -0.669999,-0.245 -0.156668,-0.1633331 -0.235001,-0.3933328 -0.235001,-0.69 l 0,-1.88 0.7,0 0,1.735 c 0,0.323334 0.149999,0.4850005 0.450001,0.485 0.169998,5e-7 0.306664,-0.048333 0.41,-0.145 0.103331,-0.096666 0.154997,-0.2249992 0.154999,-0.385 l 0,-1.69 0.7,0 0,2.7"
     style="font-size:5px;font-weight:bold;fill:#2e3436;font-family:FreeSans;-inkscape-font-specification:FreeSans Bold"
     id="path3877" /><path
     d="m 19.741328,4.3514029 0,0.465 -0.39,0 0,1.47 c -10e-7,0.1200006 0.015,0.2000005 0.045,0.24 0.03,0.036667 0.09167,0.055 0.185,0.055 0.03666,4e-7 0.09,-0.005 0.16,-0.015 l 0,0.49 c -0.113335,0.036666 -0.248334,0.055 -0.405,0.055 -0.456667,-1e-7 -0.685,-0.2116666 -0.685,-0.635 l 0,-1.66 -0.345,0 0,-0.465 0.345,0 0,-0.725 0.7,0 0,0.725 0.39,0"
     style="font-size:5px;font-weight:bold;fill:#2e3436;font-family:FreeSans;-inkscape-font-specification:FreeSans Bold"
     id="path3879" /><path
     d="m 21.217422,4.2514029 c 0.116665,2.7e-6 0.229998,0.013336 0.34,0.04 0.109998,0.026669 0.221665,0.075003 0.335,0.145 0.116664,0.070003 0.216664,0.1600024 0.3,0.27 0.08666,0.1066688 0.156664,0.250002 0.21,0.43 0.05333,0.1766683 0.08,0.3800015 0.08,0.61 -3e-6,0.040001 -0.0017,0.080001 -0.005,0.12 l -1.81,0 c 0.0033,0.1033343 0.01167,0.1933342 0.025,0.27 0.01667,0.073334 0.04333,0.1466674 0.08,0.22 0.04,0.07 0.09667,0.1250005 0.17,0.165 0.07666,0.036667 0.171665,0.055 0.285,0.055 0.266665,4e-7 0.444998,-0.1133328 0.535,-0.34 l 0.69,0 c -0.07667,0.2666671 -0.228336,0.4800003 -0.455,0.64 -0.226669,0.1566666 -0.491668,0.2349999 -0.795,0.235 -0.383334,-1e-7 -0.685001,-0.1233333 -0.905,-0.37 -0.22,-0.2499995 -0.33,-0.5916658 -0.33,-1.025 0,-0.4533316 0.111666,-0.8099979 0.335,-1.07 0.223333,-0.2633307 0.528332,-0.3949973 0.915,-0.395 m 0.535,1.15 c -0.01667,-0.1966649 -0.07167,-0.3483314 -0.165,-0.455 -0.09,-0.1066645 -0.216668,-0.1599978 -0.38,-0.16 -0.306668,2.2e-6 -0.483334,0.205002 -0.53,0.615 l 1.075,0"
     style="font-size:5px;font-weight:bold;fill:#2e3436;font-family:FreeSans;-inkscape-font-specification:FreeSans Bold"
     id="path3881" /></g><g
   transform="matrix(0.94245833,0,0,0.94245833,21.633059,-0.778)"
   style="font-size:4px;font-style:normal;font-variant:normal;font-weight:normal;font-stretch:normal;line-height:125%;letter-spacing:0px;word-spacing:0px;fill:#2e3436;fill-opacity:1;stroke:none;font-family:FreeSerif;-inkscape-font-specification:FreeSerif"
   id="flowRoot3014-6"><path
     d="m 4.625,6.9964029 -0.735,0 -0.945,-2.7 0.74,0 0.585,1.975 0.545,-1.975 0.74,0 -0.93,2.7"
     style="font-size:5px;font-weight:bold;fill:#2e3436;font-family:FreeSans;-inkscape-font-specification:FreeSans Bold"
     id="path3848" /><path
     d="m 6.5205469,7.1114029 c -0.2466674,-1e-7 -0.4450005,-0.073333 -0.595,-0.22 -0.1500002,-0.1499998 -0.2250002,-0.3466662 -0.225,-0.59 -2e-7,-0.4766655 0.2649996,-0.7599986 0.795,-0.85 l 0.28,-0.05 c 0.00667,1.6e-6 0.039999,-0.00333 0.1,-0.01 0.059999,-0.01 0.098332,-0.016665 0.115,-0.02 0.016665,-0.00667 0.048332,-0.014998 0.095,-0.025 0.049998,-0.01 0.084998,-0.021665 0.105,-0.035 0.019998,-0.013332 0.043332,-0.029998 0.07,-0.05 0.029998,-0.023332 0.049998,-0.048332 0.06,-0.075 0.01,-0.029998 0.014998,-0.063332 0.015,-0.1 -1.8e-6,-0.1799979 -0.1350017,-0.2699978 -0.405,-0.27 -0.1733346,2.2e-6 -0.2950011,0.026669 -0.365,0.08 -0.070001,0.053335 -0.1133343,0.1500019 -0.13,0.29 l -0.675,0 c 0.043333,-0.6233309 0.4283327,-0.9349973 1.155,-0.935 0.7366645,2.7e-6 1.1049975,0.2766691 1.105,0.83 l 0,1.5 c -2.5e-6,0.1233336 0.053331,0.2333335 0.16,0.33 l 0,0.085 -0.76,0 c -0.053335,-0.066667 -0.080002,-0.1566665 -0.08,-0.27 -0.2466682,0.2566667 -0.5200013,0.3849999 -0.82,0.385 m 0.815,-1.2 0,-0.19 c -0.063335,0.030001 -0.1616683,0.058334 -0.295,0.085 l -0.24,0.045 c -0.1466678,0.030001 -0.250001,0.073334 -0.31,0.13 -0.060001,0.056668 -0.090001,0.1366675 -0.09,0.24 -9e-7,0.1000007 0.033332,0.1800006 0.1,0.24 0.069999,0.056667 0.1633322,0.085 0.28,0.085 0.1766652,4e-7 0.3133318,-0.055 0.41,-0.165 0.096665,-0.1099993 0.1449982,-0.2666658 0.145,-0.47"
     style="font-size:5px;font-weight:bold;fill:#2e3436;font-family:FreeSans;-inkscape-font-specification:FreeSans Bold"
     id="path3850" /><path
     d="m 8.6099219,4.2964029 0.7,0 0,0.53 c 0.073332,-0.183331 0.1766655,-0.3249975 0.31,-0.425 0.1333318,-0.099997 0.2799984,-0.1499973 0.4400001,-0.15 0.03,2.7e-6 0.05833,0.00167 0.085,0.005 l 0,0.71 c -0.08333,-0.013331 -0.1566685,-0.019998 -0.2200001,-0.02 -0.4100012,2e-6 -0.615001,0.2050018 -0.615,0.615 l 0,1.435 -0.7,0 0,-2.7"
     style="font-size:5px;font-weight:bold;fill:#2e3436;font-family:FreeSans;-inkscape-font-specification:FreeSans Bold"
     id="path3852" /><path
     d="m 11.273281,4.2964029 0,2.7 -0.7,0 0,-2.7 0.7,0 m 0,-0.945 0,0.625 -0.7,0 0,-0.625 0.7,0"
     style="font-size:5px;font-weight:bold;fill:#2e3436;font-family:FreeSans;-inkscape-font-specification:FreeSans Bold"
     id="path3854" /><path
     d="m 12.585,7.1114029 c -0.246667,-1e-7 -0.445001,-0.073333 -0.595,-0.22 -0.15,-0.1499998 -0.225,-0.3466662 -0.225,-0.59 0,-0.4766655 0.265,-0.7599986 0.795,-0.85 l 0.28,-0.05 c 0.0067,1.6e-6 0.04,-0.00333 0.1,-0.01 0.06,-0.01 0.09833,-0.016665 0.115,-0.02 0.01666,-0.00667 0.04833,-0.014998 0.095,-0.025 0.05,-0.01 0.085,-0.021665 0.105,-0.035 0.02,-0.013332 0.04333,-0.029998 0.07,-0.05 0.03,-0.023332 0.05,-0.048332 0.06,-0.075 0.01,-0.029998 0.015,-0.063332 0.015,-0.1 -2e-6,-0.1799979 -0.135002,-0.2699978 -0.405,-0.27 -0.173335,2.2e-6 -0.295001,0.026669 -0.365,0.08 -0.07,0.053335 -0.113334,0.1500019 -0.13,0.29 l -0.675,0 c 0.04333,-0.6233309 0.428333,-0.9349973 1.155,-0.935 0.736665,2.7e-6 1.104998,0.2766691 1.105,0.83 l 0,1.5 c -2e-6,0.1233336 0.05333,0.2333335 0.16,0.33 l 0,0.085 -0.76,0 c -0.05333,-0.066667 -0.08,-0.1566665 -0.08,-0.27 -0.246668,0.2566667 -0.520001,0.3849999 -0.82,0.385 m 0.815,-1.2 0,-0.19 c -0.06334,0.030001 -0.161668,0.058334 -0.295,0.085 l -0.24,0.045 c -0.146668,0.030001 -0.250001,0.073334 -0.31,0.13 -0.06,0.056668 -0.09,0.1366675 -0.09,0.24 -10e-7,0.1000007 0.03333,0.1800006 0.1,0.24 0.07,0.056667 0.163332,0.085 0.28,0.085 0.176665,4e-7 0.313332,-0.055 0.41,-0.165 0.09666,-0.1099993 0.144998,-0.2666658 0.145,-0.47"
     style="font-size:5px;font-weight:bold;fill:#2e3436;font-family:FreeSans;-inkscape-font-specification:FreeSans Bold"
     id="path3856" /><path
     d="m 16.148203,4.2514029 c 0.323331,2.7e-6 0.593331,0.1350026 0.81,0.405 0.216664,0.2666687 0.324997,0.608335 0.325,1.025 -3e-6,0.4066676 -0.108336,0.7466672 -0.325,1.02 -0.216669,0.2733333 -0.486669,0.4099999 -0.81,0.41 -0.330001,-1e-7 -0.578334,-0.13 -0.745,-0.39 l 0,0.275 -0.7,0 0,-3.645 0.7,0 0,1.295 c 0.166666,-0.2633307 0.414999,-0.3949973 0.745,-0.395 m 0.27,0.825 c -0.110002,-0.1599979 -0.251668,-0.2399979 -0.425,-0.24 -0.173335,2.1e-6 -0.315001,0.078335 -0.425,0.235 -0.110001,0.1533351 -0.165001,0.3533349 -0.165,0.6 -10e-7,0.2566677 0.05333,0.4633342 0.16,0.62 0.109999,0.1566672 0.253332,0.2350004 0.43,0.235 0.173332,4e-7 0.314998,-0.078333 0.425,-0.235 0.109998,-0.1566658 0.164998,-0.3583323 0.165,-0.605 -2e-6,-0.2499985 -0.055,-0.4533316 -0.165,-0.61"
     style="font-size:5px;font-weight:bold;fill:#2e3436;font-family:FreeSans;-inkscape-font-specification:FreeSans Bold"
     id="path3858" /><path
     d="m 18.499844,3.3514029 0,3.645 -0.7,0 0,-3.645 0.7,0"
     style="font-size:5px;font-weight:bold;fill:#2e3436;font-family:FreeSans;-inkscape-font-specification:FreeSans Bold"
     id="path3860" /><path
     d="m 20.211562,4.2514029 c 0.116666,2.7e-6 0.229999,0.013336 0.34,0.04 0.109999,0.026669 0.221665,0.075003 0.335,0.145 0.116665,0.070003 0.216665,0.1600024 0.3,0.27 0.08666,0.1066688 0.156665,0.250002 0.210001,0.43 0.05333,0.1766683 0.08,0.3800015 0.08,0.61 -2e-6,0.040001 -0.0017,0.080001 -0.005,0.12 l -1.81,0 c 0.0033,0.1033343 0.01167,0.1933342 0.025,0.27 0.01667,0.073334 0.04333,0.1466674 0.08,0.22 0.04,0.07 0.09667,0.1250005 0.17,0.165 0.07667,0.036667 0.171666,0.055 0.285,0.055 0.266666,4e-7 0.444999,-0.1133328 0.535,-0.34 l 0.69,0 c -0.07667,0.2666671 -0.228335,0.4800003 -0.455,0.64 -0.226668,0.1566666 -0.491668,0.2349999 -0.795,0.235 -0.383334,-1e-7 -0.685,-0.1233333 -0.904999,-0.37 -0.220001,-0.2499995 -0.330001,-0.5916658 -0.330001,-1.025 0,-0.4533316 0.111667,-0.8099979 0.335,-1.07 0.223333,-0.2633307 0.528333,-0.3949973 0.915,-0.395 m 0.535,1.15 c -0.01667,-0.1966649 -0.07167,-0.3483314 -0.165,-0.455 -0.09,-0.1066645 -0.216668,-0.1599978 -0.379999,-0.16 -0.306668,2.2e-6 -0.483335,0.205002 -0.530001,0.615 l 1.075,0"
     style="font-size:5px;font-weight:bold;fill:#2e3436;font-family:FreeSans;-inkscape-font-specification:FreeSans Bold"
     id="path3862" /></g></svg>