<?xml version="1.0" encoding="UTF-8" standalone="no"?>
<svg
   xmlns:dc="http://purl.org/dc/elements/1.1/"
   xmlns:cc="http://creativecommons.org/ns#"
   xmlns:rdf="http://www.w3.org/1999/02/22-rdf-syntax-ns#"
   xmlns:svg="http://www.w3.org/2000/svg"
   xmlns="http://www.w3.org/2000/svg"
   xmlns:sodipodi="http://sodipodi.sourceforge.net/DTD/sodipodi-0.dtd"
   xmlns:inkscape="http://www.inkscape.org/namespaces/inkscape"
   width="288"
   height="288"
   viewBox="0 0 288 288"
   version="1.1"
   preserveAspectRatio="xMidYMid"
   id="svg3475"
   inkscape:version="0.91 r"
   sodipodi:docname="cpp_logo.svg">
  <metadata
     id="metadata3497">
    <rdf:RDF>
      <cc:Work
         rdf:about="">
        <dc:format>image/svg+xml</dc:format>
        <dc:type
           rdf:resource="http://purl.org/dc/dcmitype/StillImage" />
        <dc:title></dc:title>
      </cc:Work>
    </rdf:RDF>
  </metadata>
  <defs
     id="defs3495" />
  <sodipodi:namedview
     pagecolor="#ffffff"
     bordercolor="#666666"
     borderopacity="1"
     objecttolerance="10"
     gridtolerance="10"
     guidetolerance="10"
     inkscape:pageopacity="0"
     inkscape:pageshadow="2"
     inkscape:window-width="1920"
     inkscape:window-height="1148"
     id="namedview3493"
     showgrid="false"
     inkscape:zoom="2.3742092"
     inkscape:cx="121.2598"
     inkscape:cy="156.86726"
     inkscape:window-x="0"
     inkscape:window-y="0"
     inkscape:window-maximized="1"
     inkscape:current-layer="svg3475" />
  <g
     id="g3477"
     transform="translate(16.209,0)">
    <path
       d="m 255.569,84.72 c -0.002,-4.83 -1.035,-9.098 -3.124,-12.761 -2.052,-3.602 -5.125,-6.621 -9.247,-9.008 C 209.173,43.332 175.115,23.773 141.101,4.134 131.931,-1.16 123.04,-0.967 113.938,4.403 100.395,12.39 32.59,51.237 12.385,62.94 4.064,67.757 0.015,75.129 0.013,84.711 0,124.166 0.013,163.62 0,203.076 c 0.002,4.724 0.991,8.909 2.988,12.517 2.053,3.711 5.169,6.813 9.386,9.254 20.206,11.703 88.02,50.547 101.56,58.536 9.106,5.373 17.997,5.565 27.17,0.269 34.015,-19.64 68.075,-39.198 102.105,-58.817 4.217,-2.44 7.333,-5.544 9.386,-9.252 1.994,-3.608 2.985,-7.793 2.987,-12.518 0,0 0,-78.889 -0.013,-118.345"
       id="path3479"
       inkscape:connector-curvature="0"
       style="fill:#5c8dbc" />
    <path
       d="M 128.182,143.509 2.988,215.593 c 2.053,3.711 5.169,6.813 9.386,9.254 20.206,11.703 88.02,50.547 101.56,58.536 9.106,5.373 17.997,5.565 27.17,0.269 34.015,-19.64 68.075,-39.198 102.105,-58.817 4.217,-2.44 7.333,-5.544 9.386,-9.252 L 128.182,143.509"
       id="path3481"
       inkscape:connector-curvature="0"
       style="fill:#1a4674" />
    <path
       d="m 91.101,164.861 c 7.285,12.718 20.98,21.296 36.69,21.296 15.807,0 29.58,-8.687 36.828,-21.541 l -36.437,-21.107 -37.081,21.352"
       id="path3483"
       inkscape:connector-curvature="0"
       style="fill:#1a4674" />
    <path
       d="m 255.569,84.72 c -0.002,-4.83 -1.035,-9.098 -3.124,-12.761 l -124.263,71.55 124.413,72.074 c 1.994,-3.608 2.985,-7.793 2.987,-12.518 0,0 0,-78.889 -0.013,-118.345"
       id="path3485"
       inkscape:connector-curvature="0"
       style="fill:#1b598e" />
    <path
       d="m 248.728,148.661 -9.722,0 0,9.724 -9.724,0 0,-9.724 -9.721,0 0,-9.721 9.721,0 0,-9.722 9.724,0 0,9.722 9.722,0 0,9.721"
       id="path3487"
       inkscape:connector-curvature="0"
       style="fill:#ffffff" />
    <path
       d="m 213.253,148.661 -9.721,0 0,9.724 -9.722,0 0,-9.724 -9.722,0 0,-9.721 9.722,0 0,-9.722 9.722,0 0,9.722 9.721,0 0,9.721"
       id="path3489"
       inkscape:connector-curvature="0"
       style="fill:#ffffff" />
    <path
       d="m 164.619,164.616 c -7.248,12.854 -21.021,21.541 -36.828,21.541 -15.71,0 -29.405,-8.578 -36.69,-21.296 -3.539,-6.18 -5.574,-13.335 -5.574,-20.968 0,-23.341 18.923,-42.263 42.264,-42.263 15.609,0 29.232,8.471 36.553,21.059 l 36.941,-21.272 C 186.602,76.071 159.189,59.019 127.791,59.019 c -46.876,0 -84.875,38 -84.875,84.874 0,15.378 4.091,29.799 11.241,42.238 14.646,25.48 42.137,42.637 73.634,42.637 31.555,0 59.089,-17.226 73.714,-42.781 l -36.886,-21.371"
       id="path3491"
       inkscape:connector-curvature="0"
       style="fill:#ffffff" />
  </g>
</svg>
